<svg width="356" height="302" viewBox="0 0 356 302" fill="none" xmlns="http://www.w3.org/2000/svg">
<path d="M254.332 123.912C253.383 123.213 252.048 122.423 250.389 121.449C237.077 113.614 203.183 93.6608 185.404 10.0431C185.165 8.92019 184.927 7.78134 184.694 6.6319C184.439 5.37123 184.185 4.09466 183.936 2.80221C183.877 2.50558 183.824 2.21425 183.766 1.92291C183.289 -0.550764 179.839 -0.677891 179.299 1.7746C179.219 2.1189 179.145 2.4685 179.066 2.8181C179.066 2.82339 179.066 2.82869 179.066 2.83399C178.795 4.05758 178.525 5.31826 178.255 6.61072C178.016 7.74426 177.778 8.899 177.545 10.0696C175.42 20.6741 173.507 32.6823 173.215 42.5611C173.003 49.6749 173.634 55.687 175.632 59.2783L160.529 37.9687C159.336 36.2842 156.708 36.9199 156.416 38.9539C156.326 39.6107 156.231 40.3152 156.141 41.0674C156.141 41.0674 156.141 41.0727 156.141 41.078C156.035 41.9679 155.934 42.9213 155.844 43.9277C155.823 44.1502 155.807 44.3727 155.786 44.5952C155.219 51.5607 155.192 60.9892 157.455 70.4655C158.388 74.364 159.707 78.2732 161.536 82.0181C147.667 67.8117 132.411 46.8887 117.037 15.7374C116.582 14.821 115.76 14.4078 114.95 14.4078C113.768 14.4078 112.613 15.2924 112.692 16.7809C113.688 36.2948 116.513 65.0732 124.494 73.1881L104.25 56.6775C103.81 56.3173 103.307 56.1531 102.819 56.1531C101.548 56.1531 100.361 57.2496 100.551 58.7221C102.009 69.8669 107.387 95.0963 126.751 107.21L100.191 92.1141C99.8147 91.9022 99.4279 91.8069 99.0569 91.8069C97.6049 91.8069 96.3596 93.253 96.916 94.8315C100.62 105.431 110.424 127.879 128.309 133.203L101.092 125.31C100.869 125.247 100.652 125.215 100.445 125.215C98.8767 125.215 97.6897 126.857 98.3839 128.419C102.327 137.308 113.19 156.79 133.746 159.846L103.646 158.384C103.609 158.384 103.567 158.384 103.53 158.384C101.601 158.384 100.541 160.657 101.807 162.14C109.719 171.425 132.151 191.347 162.299 191.347C171.265 191.347 180.91 189.583 191.063 185.256C200.708 186.368 211.529 185.605 223.569 182.093C226.86 181.135 229.526 178.666 230.686 175.44C230.75 175.266 230.813 175.091 230.872 174.916C233.145 168.57 235.185 162.887 246.33 155.37C248.539 153.882 251.104 152.319 254.098 150.667C254.109 150.661 254.12 150.656 254.125 150.651C254.125 150.651 254.13 150.651 254.135 150.651V150.672C254.135 150.672 254.141 150.672 254.146 150.667C254.157 150.667 254.167 150.656 254.173 150.651C257.612 148.749 260.155 146.916 261.957 145.147C270.425 136.842 262.53 129.94 254.337 123.901L254.332 123.912ZM127.758 173.401C124.26 171.33 121.176 169.153 118.537 167.077L163.899 165.461C163.899 165.461 117.43 149.221 112.342 136.863C112.342 136.863 157.826 146.445 157.969 146.482C157.969 146.482 113.243 119.229 111.42 107.655C111.42 107.655 155.224 125.432 156.422 126.046C156.422 126.046 115.315 92.0294 111.881 73.1722C111.881 73.1722 144.79 95.1016 145.717 95.679C145.717 95.679 125.924 68.2831 123.148 43.7847C137.572 68.1136 153.157 86.9973 169.649 100.113C187.947 114.658 202.987 118.7 211.068 120.866C212.589 121.274 214.025 121.661 214.74 121.936C217.189 122.874 219.976 124.002 222.075 125.247C223.76 126.248 224.327 126.92 224.486 127.148C224.412 127.593 223.855 129.675 219.928 133.727L218.964 134.67C203.215 150.057 201.439 158.75 200.65 169.354L200.607 169.905C200.544 170.774 200.04 171.574 199.272 172.05C187.068 179.593 174.625 183.418 162.288 183.418C150.587 183.418 138.971 180.049 127.758 173.406V173.401ZM257.543 138.531C256.859 139.501 255.206 141.137 251.597 143.261L250.405 143.918C240.67 149.289 234.565 154.104 230.511 159.115C226.622 163.92 224.984 168.501 223.665 172.188C223.585 172.411 223.506 172.628 223.431 172.845C223.119 173.714 222.377 174.434 221.407 174.715C215.52 176.431 209.982 177.427 204.778 177.829C206.94 175.991 208.323 173.359 208.54 170.488C209.166 162.198 209.372 155.148 224.528 140.343V140.364C240.58 124.68 229.123 118.927 217.592 114.51C213.204 112.83 202.457 111.448 188 103.074C179.129 95.091 174.312 87.3681 174.312 87.3681C174.312 87.3681 165.367 72.526 164.032 64.0138C163.549 60.9468 163.3 57.9276 163.21 55.0566C163.21 55.0566 166.83 60.1629 169.151 63.4364C176.464 72.2347 181.212 76.7212 190.724 83.925C187.582 74.8567 183.363 60.2741 182.229 55.2685C181.101 50.2629 180.82 42.0155 181.291 36.618C181.498 34.2449 181.774 31.7871 182.102 29.2976C191.773 65.5075 204.677 88.4645 217.083 103.413C229.292 118.122 241.518 125.225 247.114 128.478C248.343 129.193 249.255 129.722 249.769 130.104C252.212 131.905 254.257 133.52 255.789 135.072C257.384 136.688 257.808 137.631 257.893 137.938C257.866 138.023 257.781 138.219 257.559 138.537L257.543 138.531Z" fill="#E89B2F"/>
<path d="M60.6828 232.917L60.1105 232.271C54.472 225.877 48.5209 223.022 40.8104 223.022C30.7312 223.022 20.5724 228.007 12.9362 236.699C4.79644 245.969 0.313232 258.507 0.313232 272.009C0.313232 281.236 2.8357 288.879 7.60507 294.113C12.3055 299.267 19.0674 301.995 27.1595 301.995C37.8004 301.995 45.3307 297.302 50.7042 293.207L51.4196 292.661L47.1272 286.612L46.3641 287.206C39.9678 292.179 33.9585 294.595 27.9914 294.595C15.0824 294.595 8.53775 286.702 8.53775 271.14C8.53775 260.79 12.1784 250.333 18.5216 242.457C24.6953 234.797 32.6654 230.401 40.3865 230.401C46.3747 230.401 50.1001 232.297 54.6098 237.658L55.2669 238.436L60.6828 232.901V232.917Z" fill="#E89B2F"/>
<path d="M169.509 287.804C165.137 290.961 158.497 294.727 151.688 294.727C144.497 294.727 138.689 292.349 134.889 287.846C130.369 282.486 128.853 274.17 130.501 263.756H181.624L181.83 263.11C182.625 260.631 183.955 255.625 183.955 249.979C183.955 232.594 175.778 223.017 160.93 223.017C151.237 223.017 141.444 227.859 134.068 236.302C126.161 245.338 121.81 257.585 121.81 270.78C121.81 290.326 132.616 301.989 150.708 301.989C160.776 301.989 169.239 296.894 173.383 293.859L174.072 293.355L170.32 287.216L169.509 287.804ZM131.916 256.854C135.896 241.885 148.201 230.322 160.352 230.322C165.132 230.322 176.255 232.144 176.255 249.036C176.255 251.78 176.038 254.158 175.529 256.859H131.911L131.916 256.854Z" fill="#E89B2F"/>
<path d="M229.566 233.065L231.32 224.622L230.589 224.336C228.316 223.451 226.042 223.017 223.642 223.017C215.825 223.017 208.533 227.615 201.411 237.054L203.398 224.855H196.255L181.163 300.157H189.361L199.122 250.927C205.322 238.738 214.31 230.867 222.047 230.867C224.59 230.867 227.288 231.9 228.48 232.509L229.561 233.065H229.566Z" fill="#E89B2F"/>
<path d="M282.443 224.855L271.484 279.493C261.325 289.436 252.846 294.478 246.291 294.478C237.913 294.478 234.182 290.575 234.182 281.824C234.182 279.027 234.5 276.956 235.39 272.523L245.04 224.855H236.842L227.208 272.999C226.291 277.216 225.963 279.377 225.963 283.106C225.963 295.458 232.338 301.99 244.394 301.99C252.862 301.99 260.8 296.82 269.968 288.948L268.421 300.157H275.543L290.635 224.855H282.443Z" fill="#E89B2F"/>
<path d="M101.255 223.022C92.728 223.022 85.0016 227.837 75.5424 235.698L76.9944 230.184L83.2741 199.117C81.2603 196.956 79.5275 194.922 78.0649 193.1C77.5826 192.501 77.1163 191.903 76.6606 191.31L54.9229 300.162H63.1156L74.0745 245.524C84.2915 235.581 92.7969 230.539 99.3574 230.539C107.73 230.539 111.466 234.443 111.466 243.193C111.466 246.011 111.148 248.077 110.258 252.495L100.608 300.162H108.806L118.44 252.018C119.357 247.791 119.686 245.63 119.686 241.911C119.686 229.559 113.31 223.028 101.255 223.028V223.022Z" fill="#E89B2F"/>
<path d="M332.966 223.022C322.685 223.022 313.412 228.966 306.894 234.03L309.575 221.349L313.862 200.314C311.356 197.703 309.247 195.251 307.514 193.095C307.418 192.973 307.328 192.856 307.227 192.734L285.776 300.162H292.935L295.532 290.823C299.877 298.043 306.57 302 314.509 302C324.678 302 334.98 296.507 342.775 286.93C350.862 277.004 355.313 264.042 355.313 250.445C355.313 233.277 346.956 223.028 332.961 223.028L332.966 223.022ZM337.089 281.262C330.74 289.722 322.542 294.574 314.604 294.574C307.805 294.574 302.341 290.606 297.434 282.099L305.261 243.516C313.82 235.571 324.127 230.449 331.588 230.449C341.567 230.449 347.068 237.955 347.068 251.578C347.068 261.997 343.432 272.819 337.089 281.268V281.262Z" fill="#E89B2F"/>
</svg>
